<svg xmlns="http://www.w3.org/2000/svg" xmlns:xlink="http://www.w3.org/1999/xlink" viewBox="0 0 275 200">
  <rect width="100%" height="100%" fill="#ffffff"/>
  <g fill="#333333" transform="translate(71,0)">
    <path d="m123 6.8h-106.5c-7.3 0-13.2 6-13.2 13.2v83.7c0 7.3 6 13.2 13.2 13.2h38.2c1.8-1 3-3 3-5.1v-1.8l-41.1 0c-3.5 0-6.3-2-6.3-6.3l-0-63.6h119.3v63.6c0 3.5-2.8 6.3-6.3 6.3h-41.1v1.8c0 2.1 1.2 4 3 5.1h38.2c7.3 0 13.2-5.8 13.2-13.2v-83.7c0-7.3-6-13.2-13.2-13.2zm-101.8 20.7h-1c-2.3 0-4.1-1.8-4.1-4.1 0-2.3 1.8-4.1 4.1-4.1h1c2.3 0 4.1 1.8 4.1 4.1 0 2.3-1.8 4.1-4.1 4.1zm14.2 0h-1c-2.3 0-4.1-1.8-4.1-4.1 0-2.3 1.8-4.1 4.1-4.1h1c2.3 0 4.1 1.8 4.1 4.1 0 2.3-1.8 4.1-4.1 4.1zm14.2 0h-1c-2.3 0-4.1-1.8-4.1-4.1 0-2.3 1.8-4.1 4.1-4.1h1c2.3 0 4.1 1.8 4.1 4.1 0 2.3-1.8 4.1-4.1 4.1zm71-0.4h-24.9c-2 0-3.7-1.7-3.7-3.7 0-2.1 1.7-3.7 3.7-3.7h24.9c2 0 3.7 1.5 3.7 3.7 0 2.1-1.7 3.7-3.7 3.7z"/>
    <path d="m86.5 119.3c-6.4-0.7-11.3-6.1-11.3-12.5v-37c2.5-0.8 4.6-2.6 6.9-5.9h12.2l-10.1 20c-0.4 0.8-0.5 1.7-0.3 2.4 2.1 8 8.4 11.8 15.8 11.8s13.5-3.8 15.8-11.8c0.2-0.8 0.1-1.7-0.3-2.4l-13-25.8c-0.4-0.8-1.3-1.4-2.3-1.6h-17.6c-0.8-2.5-2.6-4.6-6.9-5.9v-3.4c0-3-2.4-5.4-5.4-5.4s-5.4 2.4-5.4 5.4v3.4c-2.5 0.8-4.6 2.6-6.9 5.9h-17.6c-1 0-1.9 0.7-2.3 1.6l-13 25.8c-0.4 1-0.5 1.7-0.3 2.4 2.1 8 8.4 11.8 15.8 11.8 7.3 0 13.5-3.8 15.8-11.8 0.2-0.8 0.1-1.7-0.3-2.4l-10.1-20 h12.2c0.8 2.5 2.6 4.6 6.9 5.9v37c0 6.5-4.9 11.9-11.3 12.5l-10 1c-1 0-2 1-2 2v3.5c0 1.2 0.8 2.2 2.2 2.2h53c1.2 0 2.2-0.8 2.2-2.2v-3.5c0-1-1-2-2-2.1zm21.5-37.5h-16.8l8.4-16.8 8.4 16.8zm-59.6 0h-16.8l8.4-16.8z"/>
  </g>
  <g fill="#333333" transform="translate(2,128)">
    <path d="M16,61h11.2c2.6,0,3.7-0.6,6.2-11h2.3s-0.5,6.9-0.4,10.4v3.3h-33.2v-2.5h6.1v-37.3h-6.1v-2.5h19.9v2.5h-6v37.1z M39.8,49.7c0-9.9,4.5-15.5,14.5-15.5c10,0,14.3,5.4,14.3,15.2c0,10.2-5.4,15.6-14.3,15.6c-9.7,0-14.5-5.6-14.5-15.2z M54.3,62.6c5.3,0,6.8-4.7,6.8-13.3c0-8.4-1.6-12.9-6.8-12.9c-5.2,0-6.9,4.6-7,13.3c0,8.4,1.7,12.9,7,12.9z M73.2,57.3c0-7.2,9.2-9.7,17.4-9.7v-5.7c0-3.8-1-5.5-4.8-5.5c-3.84,0-5.2,1.7-5.2,5.3c0,1,0.1,1.9,0.2,2.9c-4.5,0.2-6.4-1.9-6.4-4.4c0-3.7,4.3-6.1,11.8-6.1c8.1,0,11.5,2.6,11.5,9.2v15.7c0,1.6,0.4,2.3,1.3,2.3c1.7,0,2.5-2.8,2.8-3.7l2.5,0.8c-0.5,2.4-2.4,6.3-7,6.3c-3,0-5.2-1.5-5.8-4.6l-0.1,0c-1.7,2.4-4.4,4.9-9,4.9s-9.2-2.5-9.2-7.6z M80.6,57.3c0,2.9,1.2,4.5,3.4,4.5c3.1,0,6.6-3.5,6.6-6.8v-4.7c-6.8,0-10,2.1-10,7z M105.5,64v-2.5h4.8v-23.9h-5.5v-2.5h12.2v7h0.1c1.1-3.4,3.9-7.9,9.2-7.9c3.4,0,6.4,1.8,6.4,5.2c0,2.9-2.3,5.1-6.5,4.9c0.1-1.2,0.1-2.3,0.1-3.4c0-2-0.4-3.3-1.8-3.3c-3.6,0-7.1,8.1-7.1,14.3v9.7h5.5v2.5h-17.5z  M163.5,61.3h11.2c2.6,0,3.7-0.6,6.2-11h2.3s-0.5,6.9-0.4,10.4v3.3h-33.2v-2.5h6.1v-37.3h-6.1v-2.5h19.9v2.5h-6v37.1z M186.7,57.3c0-7.2,9.2-9.7,17.4-9.7v-5.7c0-3.8-1-5.5-4.8-5.5c-3.84,0-5.2,1.7-5.2,5.3c0,1,0.1,1.9,0.2,2.9c-4.5,0.2-6.4-1.9-6.4-4.4c0-3.7,4.3-6.1,11.8-6.1c8.1,0,11.5,2.6,11.5,9.2v15.7c0,1.6,0.4,2.3,1.3,2.3c1.7,0,2.5-2.8,2.8-3.7l2.5,0.8c-0.5,2.4-2.4,6.3-7,6.3c-3,0-5.2-1.5-5.8-4.6l-0.1,0c-1.7,2.4-4.4,4.9-9,4.9s-9.2-2.5-9.2-7.6z M194.1,57.3c0,2.9,1.2,4.5,3.4,4.5c3.1,0,6.6-3.5,6.6-6.8v-4.7c-6.8,0-10,2.1-10,7z M232.1,64.6l-10.8-27.1h-3.8v-2.5h16.1v2.5h-4.7l6.7,17.3l7.5-19.8h2.8l8,20l6.7-17.5h-4.5v-2.5h11.5v2.5h-3.9l-10.4,27.1h-2.8l-7.9-19.8l-7.6,19.8h-2.8z"/>
  </g>
</svg>
